<svg xmlns="http://www.w3.org/2000/svg" viewBox="0 0 64 64" role="img" aria-labelledby="t">
  <title id="t">Waira</title>
  <rect width="64" height="64" rx="12" fill="#f3f7f6"/>
  <g transform="translate(12.5 8) scale(0.105)">
    <circle fill="#25cec9" cx="187.01" cy="47.43" r="31.6"/>
    <path fill="#105151" d="M143.74,135.98c18.35-21.73,48.12-41.12,78.31,6.07,6.04,9.43,19.81,9.5,26.01.17l61.12-92.06c5.39-8.12,13.55-14.04,22.99-16.49,15.54-4.03,37.12-3.1,41.52,30.64,1.01,7.75-.3,15.64-3.73,22.67l-87.61,179.07s-22.18,48.41-54.44,18.15c-8.71-8.17-14.58-18.9-17.31-30.53l-11.54-49.22c-.62-2.63-1.49-5.2-2.63-7.65-4.7-10.05-17.42-31.01-29.51,4.44-13.29,38.98-26.58,58.58-29.69,62.88-.45.62-.88,1.24-1.29,1.88-4.74,7.3-36.11,51.76-63.18-7.05C48.45,206.2,13.08,85.45,1.58,45.28-1.92,33.07.41,19.76,8.41,9.88,17.4-1.24,32.87-7.71,57.56,16.97c28.81,28.81,48.31,79.89,58.76,113.56,3.74,12.06,19.28,15.11,27.43,5.46Z"/>
  </g>
</svg>
