<?xml version="1.0" encoding="UTF-8"?>
<svg id="Capa_2" data-name="Capa 2" xmlns="http://www.w3.org/2000/svg" viewBox="0 0 706.79 253.62">
  <defs>
    <style>
      .cls-1 {
        fill: #e3fffc;
      }

      .cls-2 {
        fill: #25cec9;
      }
    </style>
  </defs>
  <g id="Capa_1-2" data-name="Capa 1">
    <g>
      <g>
        <circle class="cls-2" cx="161.23" cy="40.89" r="27.24"/>
        <path class="cls-1" d="M123.93,117.24c15.82-18.74,41.49-35.46,67.52,5.23,5.2,8.13,17.08,8.19,22.42.15l52.7-79.37c4.65-7,11.68-12.11,19.82-14.22,13.39-3.47,32.01-2.67,35.8,26.42.87,6.69-.25,13.49-3.22,19.54l-75.54,154.39s-19.13,41.73-46.94,15.65c-7.51-7.04-12.57-16.3-14.92-26.32l-9.95-42.44c-.53-2.27-1.28-4.48-2.27-6.59-4.05-8.66-15.02-26.73-25.44,3.83-11.46,33.61-22.92,50.51-25.6,54.21-.39.53-.76,1.07-1.12,1.62-4.08,6.3-31.13,44.63-54.47-6.07C41.78,177.79,11.28,73.67,1.36,39.04-1.65,28.51.35,17.04,7.25,8.52,15.01-1.07,28.34-6.65,49.62,14.63c24.84,24.84,41.65,68.88,50.66,97.91,3.23,10.4,16.63,13.02,23.65,4.71Z"/>
      </g>
      <path class="cls-1" d="M458.17,107.04c-6.03,0-11.1-1.78-15.19-5.33-4.1-3.55-6.15-8.19-6.15-13.92s2.05-10.13,6.15-13.68c4.09-3.55,9.16-5.33,15.19-5.33s10.86,1.78,14.96,5.33c4.09,3.56,6.15,8.12,6.15,13.68s-2.05,10.36-6.15,13.92c-4.1,3.56-9.08,5.33-14.96,5.33ZM439.38,234.83v-94.63c0-10.37,8.41-18.79,18.79-18.79h0c10.37,0,18.79,8.41,18.79,18.79v94.63c0,10.37-8.41,18.79-18.79,18.79h0c-10.37,0-18.79-8.41-18.79-18.79Z"/>
      <path class="cls-1" d="M500.34,253.62c-3.98,0-7.21-3.23-7.21-7.21v-69.33c0-19.02,5.14-33.63,15.42-43.83,10.28-10.2,25.01-15.31,44.18-15.31,2.01,0,5.18.12,9.51.35.04,0,.09,0,.13,0,7.24.4,12.86,6.5,12.86,13.75v11.74c0,4.45-3.95,7.86-8.35,7.21h0c-2.63-.38-5.57-.58-8.81-.58-4.79,0-9.28.7-13.45,2.09-4.17,1.39-7.54,4.02-10.09,7.89-2.55,3.87-3.83,9.51-3.83,16.93v45.94c0,16.77-13.59,30.36-30.36,30.36h0Z"/>
      <path class="cls-1" d="M351.22,253.62c-11.75,0-22.15-3.02-31.19-9.05-9.05-6.03-16.12-14.38-21.22-25.05-5.1-10.67-7.65-22.88-7.65-36.65s2.47-25.32,7.42-35.6c4.95-10.28,11.75-18.32,20.41-24.12,8.66-5.8,18.63-8.7,29.92-8.7,8.66,0,16.35,1.66,23.08,4.98,2.64,1.31,5.08,2.81,7.33,4.5,4.03,3.04,9.82.78,10.5-4.22l.13-.92c.28-2.03,2.01-3.54,4.06-3.54h.93c14.68,0,26.57,11.9,26.57,26.57v103.14c0,2.85-2.31,5.16-5.16,5.16h-20.55c-3.06,0-5.64-2.29-6-5.33h0c-.5-4.18-5.58-6.08-8.61-3.17-2.58,2.47-5.44,4.6-8.61,6.41-6.49,3.71-13.61,5.56-21.34,5.56ZM357.95,220.68c8.66,0,15.54-3.4,20.64-10.2,5.1-6.8,7.65-16,7.65-27.6s-2.55-20.76-7.65-27.48c-5.1-6.73-11.98-10.09-20.64-10.09s-15.77,3.36-20.87,10.09c-5.1,6.73-7.65,15.89-7.65,27.48s2.55,20.8,7.65,27.6c5.1,6.8,12.06,10.2,20.87,10.2Z"/>
      <path class="cls-1" d="M636.52,253.62c-11.75,0-22.15-3.02-31.19-9.05-9.05-6.03-16.12-14.38-21.22-25.05-5.1-10.67-7.65-22.88-7.65-36.65s2.47-25.32,7.42-35.6c4.95-10.28,11.75-18.32,20.41-24.12,8.66-5.8,18.63-8.7,29.92-8.7,8.66,0,16.35,1.66,23.08,4.98,2.64,1.31,5.08,2.81,7.33,4.5,4.03,3.04,9.82.78,10.5-4.22l.13-.92c.28-2.03,2.01-3.54,4.06-3.54h.93c14.68,0,26.57,11.9,26.57,26.57v103.14c0,2.85-2.31,5.16-5.16,5.16h-20.55c-3.06,0-5.64-2.29-6-5.33h0c-.5-4.18-5.58-6.08-8.61-3.17-2.58,2.47-5.44,4.6-8.61,6.41-6.49,3.71-13.61,5.56-21.34,5.56ZM643.24,220.68c8.66,0,15.54-3.4,20.64-10.2,5.1-6.8,7.65-16,7.65-27.6s-2.55-20.76-7.65-27.48c-5.1-6.73-11.98-10.09-20.64-10.09s-15.77,3.36-20.87,10.09c-5.1,6.73-7.65,15.89-7.65,27.48s2.55,20.8,7.65,27.6c5.1,6.8,12.06,10.2,20.87,10.2Z"/>
    </g>
  </g>
</svg>